<svg width="36" height="26" viewBox="0 0 36 26" fill="none" xmlns="http://www.w3.org/2000/svg">
<path d="M12.3333 2.87758L18.6405 7.28574M12.3333 2.87758L15.0927 2.14288L21.3999 6.91839M12.3333 2.87758V4.34696M18.6405 7.28574L21.3999 6.91839M18.6405 7.28574V12.4286M21.3999 6.91839V12.0613" stroke="white"/>
<path d="M21.6266 3.18182V1H25.7066V3.18182M21.6266 3.18182H25.7066M21.6266 3.18182C21.0222 3.28571 20.2666 3.80519 20.2666 4.42857M25.7066 3.18182C26.1599 3.18182 27.0666 3.43117 27.0666 4.42857" stroke="white"/>
<path d="M25.1387 8.07141V5.57141H28.3262V8.07141M25.1387 8.07141H28.3262M25.1387 8.07141C23.6667 7.71427 23.6667 10.2143 23.6667 11.2857M28.3262 8.07141C29.3334 8.07141 29.3334 9.42855 29.3334 10.5714" stroke="white" stroke-linecap="square"/>
<path d="M7.80005 9.45714V9.91429M7.80005 9.91429V10.1429M7.80005 9.91429V9" stroke="white"/>
<path d="M13.4666 9V10.1429V10.4286C13.4666 10.4286 14.5997 10.4286 14.5999 11L14.5997 12.4286" stroke="white"/>
<path d="M13.6512 14.551L4.95349 11.2857L1 14.551L9.69767 17.8163L13.6512 14.551ZM13.6512 14.551L32.2326 11.6122L35 15.2041L16.814 18.1428L13.6512 14.551Z" stroke="white"/>
<path d="M4.3999 17.6957V21.5217L13.4337 25M13.4337 25V17M13.4337 25L32.7332 22.2174V17.6957" stroke="white"/>
<rect x="7.30005" y="6.21429" width="6.66667" height="3.28571" rx="1.5" stroke="white"/>
</svg>
